# xmcd CD database file
#
# Track frame offsets:
#	150
#	13716
#	27001
#	41325
#	54607
#	68354
#	84835
#	98767
#	110269
#	123800
#	138256
#	154231
#	165844
#	176636
#	194315
#	208061
#	218724
#	234331
#	247328
#	258546
#	269087
#	282038
#	293699
#	304714
#	319728
#	332022
#
# Disc length: 4571 seconds
#
# Revision: 0
# Processed by: cddbd v1.5.2PL0 Copyright (c) Steve Scherf et al.
# Submitted via: CDex 1.79
#
DISCID=6411d91a
DTITLE=Sarah Vaughan - Dreamy+The Divine One
DYEAR=1960
DGENRE=Jazz
TTITLE0=Dreamy 01
TTITLE1=Hands across the table 02
TTITLE2=The more I see you 03
TTITLE3=I'll be seeing you 04
TTITLE4=Star eyes 05
TTITLE5=You've changed 06
TTITLE6=Trees 07
TTITLE7=Why was I born? 08
TTITLE8=My ideal 09
TTITLE9=Crazy he calls me 10
TTITLE10=Stormy weather 11
TTITLE11=Moon over Miami 12
TTITLE12=Have you met Miss Jones? 13
TTITLE13=Ain't no use 14
TTITLE14=Every time I see you 15
TTITLE15=You stepped out of a dream 16
TTITLE16=Gloomy sunday 17
TTITLE17=What do you see in her 18
TTITLE18=Jump for joy 19
TTITLE19=When your lover has gone 20
TTITLE20=I'm gonna laugh you out of my life 21
TTITLE21=Wrap your troubles in dreams 22
TTITLE22=somebody else's dream 23
TTITLE23=Trouble is a man 24
TTITLE24=Serenata 25
TTITLE25=Let's 26
EXTD=YEAR: 1960
EXTT0=
EXTT1=
EXTT2=
EXTT3=
EXTT4=
EXTT5=
EXTT6=
EXTT7=
EXTT8=
EXTT9=
EXTT10=
EXTT11=
EXTT12=
EXTT13=
EXTT14=
EXTT15=
EXTT16=
EXTT17=
EXTT18=
EXTT19=
EXTT20=
EXTT21=
EXTT22=
EXTT23=
EXTT24=
EXTT25=
PLAYORDER=
